<?xml version="1.0" encoding="utf-8"?>
<!-- Generator: Adobe Illustrator 25.4.1, SVG Export Plug-In . SVG Version: 6.00 Build 0)  -->
<svg version="1.1" id="Layer_1" xmlns="http://www.w3.org/2000/svg" xmlns:xlink="http://www.w3.org/1999/xlink" x="0px" y="0px"
	 viewBox="0 0 10404 2467" style="enable-background:new 0 0 10404 2467;" xml:space="preserve">
<style type="text/css">
	.st0{fill:#FFFFFF;}
	.st1{fill:#1B1642;}
</style>
<g transform="translate(0.000000,2467.000000) scale(0.100000,-0.100000)">
	<path class="st0" d="M7891,24659c-306-16-665-56-977-109c-2966-506-5444-2603-6448-5455c-78-222-154-480-221-750
		c-116-469-169-799-227-1415c-9-94-13-2197-15-8527L0,0h5942c3845,0,6012,4,6138,10c346,18,680,55,1006,110
		c2384,407,4489,1853,5736,3940c706,1182,1098,2478,1168,3870c6,125,10,3176,10,8468v8272l-5977-1
		C10735,24668,7976,24663,7891,24659z"/>
	<path class="st1" d="M14070,13105V9940h-73c-84,0-113,17-121,72c-5,33-26,624-26,727v54l-51-69c-308-412-681-680-1091-784
		c-172-43-281-53-511-47c-152,3-229,10-312,27c-702,140-1127,629-1264,1455c-41,244-46,322-46,690c1,321,3,375,23,500
		c88,562,284,974,612,1288c297,285,649,435,1093,466c621,45,1123-163,1467-608l65-83l3,1321l2,1321h115h115V13105z"/>
	<path class="st1" d="M3710,14540c199-21,366-68,525-147c388-196,644-532,760-1000c67-271,65-220,65-1919V9940h-680h-680l-2,1543
		l-3,1542l-23,75c-70,225-202,360-399,406c-146,35-363,15-525-47c-115-45-315-170-410-257l-28-26v-1618V9940h-680H950v2270v2270h440
		c450,0,509-4,580-40c45-23,102-84,129-135c16-32,101-294,101-313c0-2,24,18,54,46c92,83,206,172,308,239
		C2879,14485,3302,14582,3710,14540z"/>
	<path class="st1" d="M6673,14456c57-22,148-102,182-160c21-37,760-1967,836-2185c17-49,47-150,68-225l37-137l88,248
		c48,136,243,696,433,1243c189,547,354,1014,366,1038c29,60,105,127,185,165l67,32l594,3c481,2,592,0,588-10
		c-66-166-2428-5721-2449-5760c-42-80-118-152-187-180c-56-23-58-23-644-26l-587-3l24,53c13,29,209,442,436,917
		c226,475,410,871,407,880c-2,9-408,937-901,2063s-896,2053-896,2058c0,8,202,10,653,8C6577,14475,6629,14473,6673,14456z"/>
	<path class="st1" d="M17230,14309c224-26,456-106,636-220l61-39h532h531v-44c0-104,0-104-403-121c-183-8-360-15-394-15h-62l69-92
		c109-145,186-314,232-508c29-126,36-418,13-566c-108-695-680-1134-1475-1134c-223,0-421,33-618,102l-114,40l-68-46
		c-192-127-341-325-372-495c-20-109,11-238,79-327c47-62,170-136,297-179c212-71,376-89,1121-125c863-42,1207-135,1452-394
		c128-134,176-270,177-496c1-192-27-308-117-484c-165-323-492-579-934-730c-324-110-682-153-1075-127c-743,49-1275,315-1489,746
		c-76,153-92,229-92,415c0,139,3,164,27,243c51,169,122,283,262,417c137,132,292,228,506,315c65,26,79,35,63,41
		c-161,57-283,131-361,216c-87,96-124,202-124,358c0,117,32,219,106,337c78,126,242,286,361,354c24,13,43,27,43,30c0,4-30,26-67,50
		c-101,65-287,256-352,361c-140,229-201,459-201,760c0,591,301,1046,833,1257C16573,14313,16898,14348,17230,14309z"/>
	<path class="st0" d="M12220,14126c-538-78-939-376-1179-876c-117-245-188-519-221-849c-13-133-13-531,1-686
		c82-965,467-1489,1185-1616c154-27,424-30,564-6c461,79,875,364,1209,833l61,87v1185v1184l-47,67c-82,115-157,203-260,302
		c-200,192-402,295-700,359C12705,14138,12364,14146,12220,14126z"/>
	<path class="st0" d="M16809,14140c-452-44-803-261-976-605c-44-86-89-221-110-322c-24-123-24-413,0-536c94-468,405-786,881-897
		c265-62,615-48,863,35c196,65,343,156,468,286c181,189,279,422,305,723c30,347-65,679-263,917c-158,189-437,337-729,384
		C17135,14143,16918,14151,16809,14140z"/>
	<path class="st0" d="M16205,10396c-298-123-541-307-660-499c-145-237-158-522-35-767c149-296,538-526,1030-609
		c821-139,1636,95,1993,574c67,89,128,210,153,300s30,305,10,383c-69,271-315,440-746,512c-171,29-399,48-845,70
		c-417,21-548,31-702,55c-51,8-98,15-105,15C16291,10429,16249,10414,16205,10396z"/>
	<path class="st0" d="M90260,16625V9620h1165h1165v2215v2215h318c423,0,559-18,674-92c51-32,147-130,190-193
		c14-22,527-785,1140-1695s1193-1772,1288-1915c231-346,298-410,494-476c174-58,188-59,1390-59c603,0,1096,2,1096,4
		c0,11-3375,4917-3444,5005c-106,137-237,273-336,352c-44,34-80,65-80,68c1,3,43,34,94,68c189,127,377,307,559,535
		c41,51,741,890,1556,1863l1482,1770l-1093,3c-1100,3-1203,0-1333-33c-137-36-283-125-401-247c-34-35-627-763-1318-1618
		c-692-855-1287-1583-1323-1618c-41-38-92-75-137-97c-113-55-192-66-523-72l-293-6l-2,4014l-3,4014l-1162,3l-1163,2V16625z"/>
	<path class="st0" d="M87785,19463c-507-41-929-204-1300-502c-362-290-685-686-969-1185c-50-88-92-153-93-145s-34,261-73,562
		c-71,553-79,607-107,707c-45,159-144,287-258,329c-147,56-129,55-972,58l-783,4v-4836V9620h1165h1165v2981v2981l51,117
		c66,153,221,452,293,569c149,241,373,487,566,625c109,77,314,182,444,227c293,101,697,122,1117,59c380-57,479-65,568-49
		c138,25,216,92,272,232c18,45,32,175,95,903c41,468,74,865,74,883c0,29-7,37-62,73c-250,162-628,252-1028,247
		C87881,19467,87807,19465,87785,19463z"/>
	<path class="st0" d="M28200,19429c-716-54-1404-310-1977-735c-207-153-408-323-596-503c-48-46-89-82-90-80c-2,2-39,173-81,379
		c-51,245-88,399-107,445c-55,132-160,246-275,296c-123,55-90,53-931,56l-783,4v-4836V9620h1165h1165v3499v3499l108,100
		c361,337,746,594,1107,739c583,235,1300,232,1763-7c369-190,618-547,726-1040c65-298,60-23,63-3572l3-3218h1165h1165v3083
		c0,3081-3,3374-36,3671c-101,920-428,1677-954,2207c-441,444-1046,733-1720,823C28819,19439,28462,19449,28200,19429z"/>
	<path class="st0" d="M37810,19434c-25-2-108-8-185-14c-467-36-945-146-1355-312c-1028-416-1813-1146-2294-2133
		c-378-775-547-1642-507-2602c18-446,55-776,127-1128c175-855,540-1629,1054-2236c129-151,402-416,560-543c407-325,830-553,1350-726
		c383-128,699-193,1175-242c161-17,835-17,1025,0c628,55,1027,133,1500,291c732,246,1368,641,1818,1128c50,54,99,109,110,123l19,25
		l-342,435c-188,239-366,460-396,490c-94,95-197,133-369,133c-162,0-287-40-495-158c-60-34-207-114-325-177
		c-545-292-954-433-1425-489c-146-18-664-18-805-1c-576,72-1039,279-1399,627c-182,176-327,372-450,606c-224,427-350,901-416,1566
		l-6,63l3063,3c2830,2,3067,4,3117,19c88,28,157,66,196,110c110,121,155,353,155,793c-1,694-109,1313-327,1865
		c-567,1438-1735,2298-3348,2465C38485,19431,37925,19444,37810,19434z M38462,17755c1044-122,1696-882,1754-2048l7-137h-2197h-2198
		l7,43c34,216,99,475,172,677c87,245,251,545,397,726c74,92,233,250,321,319c304,238,684,382,1120,424
		C37996,17773,38324,17771,38462,17755z"/>
	<path class="st0" d="M76360,19434c-970-57-1782-314-2495-789c-804-536-1372-1308-1698-2310c-261-801-340-1777-222-2720
		c81-640,241-1176,515-1720c234-466,486-813,841-1160c317-309,657-548,1063-749c728-358,1526-522,2451-503c597,13,1094,93,1589,258
		c1288,429,2219,1336,2704,2634c261,699,382,1549,343,2395c-30,628-115,1114-286,1625c-371,1114-1037,1925-2020,2464
		c-547,299-1177,484-1895,557C77102,19430,76510,19443,76360,19434z M77090,17635c1053-143,1666-836,1886-2132
		c58-346,69-505,69-1048c0-449-3-521-22-701c-62-554-165-951-342-1319c-325-674-829-1035-1591-1142c-158-22-611-25-770-5
		c-436,55-809,200-1085,420c-228,182-404,404-553,699c-216,426-338,932-382,1571c-13,195-13,762,0,952c44,636,162,1134,370,1555
		c131,266,258,444,443,621c332,319,755,494,1312,544C76557,17662,76957,17653,77090,17635z"/>
	<path class="st0" d="M49725,19295c-207-39-379-175-458-360c-16-37-1601-5162-1762-5695c-90-298-238-821-291-1024
		c-26-102-40-143-45-130c-4,10-17,87-29,169c-46,323-157,886-256,1294c-24,101-355,1343-735,2760c-472,1761-700,2595-720,2637
		c-81,166-263,292-474,329c-129,22-2020,23-2012,0c7-15,3046-9609,3054-9637c5-17,58-18,927-18c608,0,942,4,980,11
		c156,28,280,130,346,283c27,64,1797,5661,1860,5882s129,488,185,744c29,131,45,187,48,170c4-14,20-97,38-185c38-192,89-403,163-665
		c72-258,1808-5851,1841-5931c52-130,139-229,243-277l57-27l985-3l985-2l1415,4452c778,2449,1469,4625,1536,4836l122,383l-957-4
		c-885-3-960-4-1016-21c-174-52-330-180-405-331c-32-64-1438-5148-1543-5580c-98-398-203-916-248-1213c-7-45-16-79-19-75
		c-4,5-22,67-40,138c-225,893-297,1139-1166,4040c-550,1833-806,2673-831,2725c-51,106-151,203-264,258c-160,79-129,76-824,78
		C49935,19308,49779,19306,49725,19295z"/>
	<path class="st0" d="M61683,19278c2-7,881-2017,1952-4467c1072-2450,1948-4459,1948-4465s-404-877-897-1936
		c-494-1059-900-1931-903-1938c-5-11,169-12,953-9c937,3,961,4,1046,25c206,50,346,165,452,371c37,72,5316,12412,5316,12427
		c0,2-449,3-997,2l-998-3l-86-31c-153-55-298-172-376-305c-17-30-473-1192-1013-2584c-1188-3061-1085-2790-1221-3207l-112-343
		l-44,170c-71,277-141,520-190,654c-69,190-2130,5218-2165,5281c-71,128-194,252-300,304c-132,64-63,60-1272,64
		C61887,19290,61679,19288,61683,19278z"/>
	<path class="st0" d="M33520,7929V6707l-52,69c-125,166-330,339-511,430c-410,207-1058,200-1486-16c-523-263-839-762-948-1495
		c-25-170-25-669,0-875c67-543,217-903,490-1172c173-170,389-284,648-342c237-53,526-57,749-10c388,81,753,326,1039,698l76,98l7-143
		c4-79,11-247,15-372c8-224,9-229,32-248c17-14,39-19,87-19h64v2920v2920h-105h-105V7929z M32601,7161c367-79,631-260,865-592l54-77
		V5395V4299l-40-58c-103-152-249-315-384-430c-218-185-441-297-699-353c-135-29-420-31-572-4c-554,99-897,461-1035,1091
		c-54,246-65,368-65,725c1,359,13,479,74,722c165,647,580,1071,1151,1172c132,24,142,24,355,21C32461,7182,32526,7177,32601,7161z"
		/>
	<path class="st0" d="M60930,6230V3310h105h105v2920v2920h-105h-105V6230z"/>
	<path class="st0" d="M37170,9001c-77-25-146-87-179-161c-27-59-28-159-2-217c24-51,84-113,136-138c60-29,161-32,217-7
		c135,60,206,201,167,332c-18,58-78,130-137,163C37316,9004,37220,9018,37170,9001z"/>
	<path class="st0" d="M46860,9001c-77-25-146-87-179-161c-27-59-28-159-2-217c24-51,84-113,136-138c60-29,161-32,217-7
		c135,60,206,201,167,332c-18,58-78,130-137,163C47006,9004,46910,9018,46860,9001z"/>
	<path class="st0" d="M50755,8716c-14-21-21-145-47-798c-17-425-31-774-32-775s-117-7-256-13c-140-5-297-13-347-16l-93-6v-47
		c0-84-12-81,368-81h332l3-1547c3-1450,4-1553,21-1623c58-241,169-389,361-480c120-58,181-71,351-77c166-6,236,2,367,43
		c167,53,313,135,428,242c83,76,85,83,52,133c-46,70-69,69-158-6c-185-156-367-233-565-242c-326-14-535,135-623,444l-22,78l-3,1518
		l-3,1517h661h660v80v80h-660h-660v800v800h-60C50778,8740,50768,8737,50755,8716z"/>
	<path class="st0" d="M41830,7350c-340-36-643-171-847-376c-212-216-325-488-340-824c-21-457,164-858,498-1082c43-29,78-55,78-58
		s-27-21-60-40c-74-42-211-168-275-253c-57-75-108-180-130-267c-32-126-2-289,72-398c57-82,207-183,329-222c22-7,44-16,48-20
		s-20-17-55-30c-35-12-111-47-171-77c-307-156-504-383-563-648c-25-112-23-284,5-390c118-446,561-748,1231-840c164-22,487-30,650-16
		c491,44,922,223,1200,501c141,140,232,289,287,467c25,81,27,102,27,258c1,160-1,174-27,248c-96,273-359,446-787,517
		c-169,29-396,47-850,70c-606,30-787,59-980,156c-164,81-231,175-238,334c-5,110,17,184,88,291c80,124,298,311,340,293
		c66-29,228-79,312-96c88-19,138-22,338-22c206-1,249,2,347,22c533,108,870,415,1000,912c35,132,44,409,18,561
		c-33,200-109,380-225,534l-60,80l27,3c16,1,180,9,367,16c395,16,389,15,394,105l3,51h-497h-496l-72,44c-137,86-319,151-506,181
		C42192,7354,41943,7362,41830,7350z M42160,7190c428-38,754-239,917-565c120-240,153-585,83-862c-111-433-447-715-927-778
		c-574-75-1059,139-1270,560c-184,366-156,865,68,1196C41247,7063,41674,7232,42160,7190z M41649,3730c53-5,274-19,491-30
		c464-23,670-42,836-75c238-48,388-118,505-234c111-111,156-241,146-421c-13-221-98-392-283-570c-220-212-543-356-929-415
		c-149-23-407-30-570-16c-774,68-1255,421-1255,921c0,350,244,641,701,835l98,42l82-13C41516,3747,41596,3736,41649,3730z"/>
	<path class="st0" d="M56145,7350c-397-41-747-212-1090-533c-90-84-90-84-75-111c37-71,84-92,137-63c12,7,70,55,128,107
		c150,134,260,211,410,284c234,116,384,150,660,150c203-1,302-17,441-75c264-110,449-346,534-682c46-183,54-281,55-642v-330l-180-7
		c-1117-42-1898-276-2221-666c-101-122-170-293-189-472c-7-68,10-264,31-345c83-326,309-563,636-664c231-70,591-69,872,4
		c345,90,613,251,937,563l118,113l5-43c3-24,12-153,21-288s18-257,21-272c9-44,48-68,111-68h54l-4,1428c-4,1570-1,1497-66,1756
		c-119,469-423,761-876,841C56504,7354,56266,7362,56145,7350z M57348,4728l2-575l-154-150c-84-82-199-184-255-226
		c-297-224-596-339-959-368c-452-37-785,128-942,464c-56,118-73,206-74,372c0,137,2,157,27,231c128,384,601,634,1422,754
		c228,33,864,85,920,75C57341,5304,57346,5102,57348,4728z"/>
	<path class="st0" d="M69800,7350c-340-36-643-171-847-376c-212-216-325-488-340-824c-21-457,164-858,498-1082c43-29,78-55,78-58
		s-27-21-60-40c-74-42-211-168-275-253c-57-75-108-180-130-267c-32-126-2-289,72-398c57-82,207-183,329-222c22-7,44-16,48-20
		s-20-17-55-30c-35-12-111-47-171-77c-307-156-504-383-563-648c-25-112-23-284,5-390c118-446,561-748,1231-840c164-22,487-30,650-16
		c491,44,922,223,1200,501c141,140,232,289,287,467c25,81,27,102,27,258c1,160-1,174-27,248c-96,273-359,446-787,517
		c-169,29-396,47-850,70c-606,30-787,59-980,156c-164,81-231,175-238,334c-5,110,17,184,88,291c80,124,298,311,340,293
		c66-29,228-79,312-96c88-19,138-22,338-22c206-1,249,2,347,22c533,108,870,415,1000,912c35,132,44,409,18,561
		c-33,200-109,380-225,534l-60,80l27,3c16,1,180,9,367,16c395,16,389,15,394,105l3,51h-497h-496l-72,44c-137,86-319,151-506,181
		C70162,7354,69913,7362,69800,7350z M70130,7190c428-38,754-239,917-565c120-240,153-585,83-862c-111-433-447-715-927-778
		c-574-75-1059,139-1270,560c-184,366-156,865,68,1196C69217,7063,69644,7232,70130,7190z M69619,3730c53-5,274-19,491-30
		c464-23,670-42,836-75c238-48,388-118,505-234c111-111,156-241,146-421c-13-221-98-392-283-570c-220-212-543-356-929-415
		c-149-23-407-30-570-16c-774,68-1255,421-1255,921c0,350,244,641,701,835l98,42l82-13C69486,3747,69566,3736,69619,3730z"/>
	<path class="st0" d="M76105,7349c-506-60-863-386-1094-999l-39-105l-6,65c-3,36-8,205-11,375c-3,171-8,367-11,437
		c-8,160-13,168-114,168h-70V5300V3310h110h110l2,1333l3,1332l58,150c241,626,513,914,949,1006c153,32,390,31,508-1
		c47-13,110-24,140-25c49,0,56,3,67,26c7,14,14,52,15,85l3,58l-59,24c-32,13-93,30-135,38C76434,7355,76209,7362,76105,7349z"/>
	<path class="st0" d="M80570,7349c-632-56-1131-421-1376-1006c-126-300-185-631-185-1033c0-330,32-581,107-826
		c96-319,228-548,434-754c283-284,616-427,1077-462c537-41,1029,120,1359,446c358,355,536,840,551,1502c11,499-55,861-223,1214
		c-226,474-634,792-1139,890C80978,7358,80778,7367,80570,7349z M80961,7179c618-62,1044-413,1244-1022c183-560,162-1336-50-1843
		c-168-400-461-679-849-805c-265-87-643-101-936-35c-495,112-857,458-1029,983c-87,265-116,482-115,863c1,315,15,446,74,688
		c167,685,622,1103,1275,1171C80692,7191,80844,7191,80961,7179z"/>
	<path class="st0" d="M93525,7353c-321-27-626-153-896-371c-99-80-278-267-354-370c-53-71-61-79-66-59c-3,12-9,135-13,272
		c-3,138-9,290-13,339c-8,115-17,126-113,126h-70V4580V1870h110h110v1021v1020l59-78c124-165,318-327,496-416
		c423-210,1041-206,1481,9c511,250,845,761,948,1451c72,478,24,1092-118,1499c-180,518-534,839-1039,944
		C93893,7352,93677,7366,93525,7353z M93910,7165c262-45,489-160,662-336c281-286,422-724,444-1374c34-1000-347-1720-1030-1949
		c-175-58-261-70-516-70c-206,0-247,2-337,22c-198,43-383,123-514,221c-91,69-251,239-331,351l-68,95v1101v1101l52,74
		c79,114,166,214,279,324c285,276,561,412,929,459C93548,7192,93816,7180,93910,7165z"/>
	<path class="st0" d="M37140,5300V3310h105h105v1990v1990h-105h-105V5300z"/>
	<path class="st0" d="M46830,5300V3310h105h105v1990v1990h-105h-105V5300z"/>
	<path class="st0" d="M85620,5930c0-889,4-1394,11-1458c77-706,434-1117,1051-1208c155-23,460-15,600,15c262,57,511,179,753,371
		c99,78,270,251,350,354l60,77l7-203c19-499,21-528,47-549c17-14,39-19,87-19h64v1990v1990h-105h-105V5781V4271l-82-102
		c-308-388-660-628-1057-721c-122-28-439-37-567-14c-541,94-830,448-894,1095c-6,64-10,604-10,1432v1329h-105h-105V5930z"/>
</g>
</svg>
