<?xml version="1.0" encoding="utf-8"?>
<!-- Generator: Adobe Illustrator 25.4.1, SVG Export Plug-In . SVG Version: 6.00 Build 0)  -->
<svg version="1.1" id="Layer_1" xmlns="http://www.w3.org/2000/svg" xmlns:xlink="http://www.w3.org/1999/xlink" x="0px" y="0px"
	 viewBox="0 0 10404 2467" style="enable-background:new 0 0 10404 2467;" xml:space="preserve">
<style type="text/css">
	.st0{fill:#1B1642;}
</style>
<g transform="translate(0.000000,2467.000000) scale(0.100000,-0.100000)">
	<path class="st0" d="M7891,24659c-306-16-665-56-977-109c-2966-506-5444-2603-6448-5455c-78-222-154-480-221-750
		c-116-469-169-799-227-1415c-9-94-13-2197-15-8527L0,0h5942c3845,0,6012,4,6138,10c346,18,680,55,1006,110
		c2384,407,4489,1853,5736,3940c706,1182,1098,2478,1168,3870c6,125,10,3176,10,8468v8272l-5977-1
		C10735,24668,7976,24663,7891,24659z M12700,12885v-2125h-55c-82,0-82,0-90,290c-4,135-8,251-11,259s-25-14-56-55
		c-116-155-322-331-487-414c-165-82-316-115-531-113c-670,3-1048,410-1120,1203c-72,805,189,1408,722,1665c292,141,731,150,1022,20
		c136-60,294-184,386-303l55-71l3,884l2,885h80h80V12885z M5757,13849c415-46,726-316,842-731c51-182,51-189,51-1310v-1048h-455
		h-454l-3,1038l-3,1037l-22,65c-42,123-118,206-225,247c-31,12-76,16-158,16c-99,0-126-3-194-27c-91-31-172-76-268-149l-68-51v-1088
		v-1088h-455h-455v1525v1525h313h313l53-26c66-33,98-80,130-195c13-46,27-87,31-92c3-4,31,14,61,40c235,201,418,282,714,317
		C5570,13861,5665,13859,5757,13849z M7766,13775c28-18,60-49,76-75c15-25,141-342,279-705c251-660,324-862,349-964l13-54l69,194
		c38,107,170,487,294,844c124,358,232,661,241,674c26,40,65,72,118,97c50,24,51,24,444,24c370,0,393-1,389-17
		c-3-10-373-885-823-1946c-884-2084-842-1992-937-2033c-39-17-78-19-437-22c-375-3-393-2-389,15c3,10,135,288,292,619l287,601
		l-601,1374c-331,756-604,1382-607,1392c-5,17,16,18,444,15l450-3L7766,13775z M14890,13685c131-26,274-82,352-136
		c24-18,50-19,392-19h366v-40c0-64-13-68-271-80c-123-5-244-10-268-10h-45l26-27c176-191,250-552,174-843c-74-282-264-495-536-599
		c-129-50-264-72-435-72c-173,0-282,16-409,61l-87,31l-64-45c-223-160-299-402-170-545c67-74,212-132,401-160c69-10,204-20,604-41
		c538-29,761-94,922-268c94-102,132-250,109-418c-37-268-214-491-508-642c-250-129-505-179-848-169c-424,13-749,126-949,333
		c-119,122-175,248-183,414c-14,278,124,483,430,640c65,33,124,60,132,60c30,0,14,18-32,35c-96,35-189,103-229,166
		c-30,48-54,137-54,200c0,67,34,168,79,235c49,73,153,177,220,219l50,32l-56,39c-187,129-319,346-354,583c-17,117-7,323,21,426
		c100,370,410,611,845,659C14587,13712,14813,13700,14890,13685z"/>
	<path d="M11405,13564c-303-54-541-223-703-499c-152-260-225-662-193-1070c49-612,248-950,638-1086c145-50,351-71,507-50
		c318,43,621,245,844,564l42,61v794v794l-47,67c-172,241-384,379-652,426C11736,13584,11512,13583,11405,13564z"/>
	<path d="M14560,13584c-258-28-408-92-551-234c-73-73-94-100-132-180c-60-126-77-199-84-355c-7-171,16-285,83-423
		c39-82,60-110,133-183c98-98,179-148,310-190c263-84,580-58,811,68c100,55,225,187,278,293c67,136,85,219,85,395
		c0,178-17,259-87,400c-99,200-291,339-536,388C14792,13579,14620,13590,14560,13584z"/>
	<path d="M14130,11066c-259-108-434-262-495-436c-28-79-38-173-25-252c52-343,434-572,990-595c490-20,922,152,1116,445
		c59,87,86,171,91,283c12,218-80,347-308,433c-139,52-331,76-815,101c-166,9-345,22-399,30s-99,15-99,15
		C14185,11089,14160,11079,14130,11066z"/>
	<path class="st0" d="M81580,16165v-5415h900h900v1715v1715h218c254-1,381-11,474-40c129-40,85,20,1194-1628
		c554-823,1023-1519,1043-1545c68-92,159-147,308-190c77-21,86-22,971-25c726-2,892,0,886,10c-48,78-2614,3805-2663,3868
		c-75,97-192,218-268,277l-53,41l97,68c121,86,267,224,374,356c76,91,2240,2679,2347,2806l45,53l-904-3c-878-3-906-4-974-24
		c-91-27-175-71-253-136c-46-37-334-387-1075-1301c-1093-1351-1061-1315-1195-1359c-60-19-94-22-319-26l-253-4v3101v3101h-900h-900
		V16165z"/>
	<path class="st0" d="M79618,18359c-291-25-583-125-813-276c-335-220-685-626-921-1068c-25-46-45-73-48-65c-2,8-29,211-60,450
		c-59,459-70,518-115,615c-50,109-105,153-236,192c-54,15-125,17-672,21l-613,3v-3740v-3741h900h900v2305v2304l39,89
		c187,424,383,706,616,887c354,274,731,344,1342,249c92-14,213-27,268-27c123-2,176,15,233,77c75,82,76,85,141,829l59,672l-27,23
		c-14,12-60,40-102,62C80282,18338,79956,18390,79618,18359z"/>
	<path class="st0" d="M33655,18344c-134-8-291-25-392-43c-614-108-1157-400-1680-905c-46-44-85-77-88-75c-2,3-32,135-65,295
		c-67,318-95,396-169,477c-23,24-67,58-99,75c-113,60-128,62-769,62h-583v-3740v-3740h900h900v2704v2704l93,89
		c312,298,693,530,1032,628c218,63,558,88,770,57c268-40,466-128,625-279c205-194,315-431,377-813c16-97,17-302,20-2597l4-2493h899
		h900v2408c0,1467-4,2475-10,2582c-70,1225-594,2067-1515,2433c-182,72-406,126-632,151C34040,18340,33759,18350,33655,18344z"/>
	<path class="st0" d="M40974,18339c-1189-64-2183-630-2778-1579c-294-469-484-1038-553-1660c-21-190-24-712-4-930
		c70-808,280-1449,661-2024c120-182,230-317,389-480c267-271,509-450,841-620c729-373,1591-488,2590-345c757,108,1445,406,1953,847
		c119,104,309,302,305,319s-525,680-567,721c-72,71-194,109-317,98c-108-9-214-47-374-137c-576-321-905-447-1287-495
		c-166-21-523-24-663-6c-594,77-1027,329-1320,771c-158,237-279,530-350,851c-30,132-69,387-76,497l-7,93l2369,2
		c2231,3,2372,4,2421,21c90,31,144,74,181,147c42,84,59,169,73,362c13,187-1,518-32,758c-82,641-302,1192-669,1670
		c-104,136-362,389-505,496c-507,380-1106,584-1830,624C41227,18351,41181,18351,40974,18339z M41392,17050c412-30,736-167,988-420
		c211-210,355-496,424-840c23-115,46-313,46-402v-38h-1700h-1701l7,38c88,508,264,902,530,1181c283,298,638,452,1104,480
		c69,5,134,9,145,9C41246,17059,41317,17055,41392,17050z"/>
	<path class="st0" d="M70819,18339c-2120-110-3459-1593-3459-3832c0-1190,366-2177,1067-2873c674-671,1652-1022,2758-990
		c815,23,1487,226,2070,624c316,215,609,509,828,827c521,760,754,1797,651,2905c-76,822-339,1522-782,2080c-93,116-297,327-412,425
		c-601,510-1347,788-2245,835C71087,18351,71037,18351,70819,18339z M71275,16959c920-79,1436-669,1585-1814c64-484,45-1148-45-1590
		c-171-846-602-1344-1285-1484c-169-35-289-44-528-38c-230,5-321,15-485,57c-456,117-789,391-1006,827c-190,381-282,827-297,1438
		c-29,1149,259,1961,829,2342C70354,16904,70803,17000,71275,16959z"/>
	<path class="st0" d="M50171,18224c-125-33-249-132-301-239c-19-39-428-1353-1195-3840c-189-615-345-1144-410-1398
		c-16-59-29-106-31-105c-1,2-10,55-19,118c-40,275-137,764-214,1076c-108,433-1095,4086-1117,4131c-35,73-122,156-208,198
		c-132,65-131,65-964,63l-749-3l1148-3625c632-1994,1165-3676,1184-3738l36-112l742,2l742,3l59,24c71,28,143,96,179,167
		c30,59,1406,4403,1476,4659c44,164,111,439,141,590l13,60l32-160c72-351,74-358,854-2875c416-1340,695-2222,716-2265
		c39-81,98-145,164-177l46-23h765h764l1187,3735l1187,3735l-709,3c-774,2-794,1-909-55c-74-36-189-151-222-223
		c-19-42-980-3503-1140-4105c-80-304-174-735-227-1047c-16-90-31-156-34-148s-40,148-82,310s-110,417-150,565
		c-121,442-1313,4405-1342,4463c-54,107-201,214-331,241C51166,18247,50240,18243,50171,18224z"/>
	<path class="st0" d="M59463,18213c2-10,682-1567,1511-3460l1505-3442l-666-1428c-366-785-680-1461-699-1501l-33-73l762,3
		c708,3,766,5,817,22c126,42,208,106,286,222c25,38,774,1780,2091,4862c1129,2642,2053,4805,2053,4808c0,2-336,4-747,4
		c-830,0-817,1-944-66c-74-39-169-131-211-204c-14-25-385-970-823-2100c-569-1465-824-2136-891-2339c-51-156-95-285-97-288
		c-3-2-15,38-27,89c-42,169-127,461-165,563c-75,199-1648,4031-1673,4074c-33,56-124,154-177,191c-23,16-71,39-106,52l-64,23l-854,3
		C59495,18231,59458,18230,59463,18213z"/>
	<path class="st0" d="M37670,9445v-946l-58,73c-244,306-560,441-992,425c-237-9-416-56-585-153c-345-196-566-529-659-994
		c-92-460-31-1082,140-1422c54-107,108-183,193-272c211-218,472-319,831-320c281,0,483,61,715,217c100,68,319,280,375,364
		c19,29,38,53,41,53c4,0,10-111,13-247c10-357,9-353,102-353h54l-2,2258l-3,2257l-82,3l-83,3V9445z M37013,8837
		c118-31,261-98,342-160c78-58,207-193,268-278l47-67v-850v-851l-77-103c-220-292-481-473-777-540c-119-27-341-29-470-4
		c-389,75-641,317-761,731c-98,337-110,842-30,1189c112,480,392,807,790,921c135,38,193,44,390,41C36890,8863,36929,8859,37013,8837
		z"/>
	<path class="st0" d="M58877,10383c-4-3-7-1020-7-2260V5870h85h85v2260v2260h-78C58919,10390,58880,10387,58877,10383z"/>
	<path class="st0" d="M40485,10266c-55-20-119-93-134-152c-35-139,94-282,234-259c57,9,117,47,151,96c25,37,29,51,29,114
		c0,61-4,77-27,113C40684,10259,40572,10297,40485,10266z"/>
	<path class="st0" d="M47975,10266c-55-20-119-93-134-152c-35-139,94-282,234-259c57,9,117,47,151,96c25,37,29,51,29,114
		c0,61-4,77-27,113C48174,10259,48062,10297,47975,10266z"/>
	<path class="st0" d="M51006,10048c-11-18-19-148-38-618l-23-595l-150-7c-82-4-206-10-274-14l-123-6l5-40c3-22,8-43,12-46
		c4-4,124-9,268-12l262-5l5-1210c5-1116,7-1215,23-1270c58-197,164-310,351-372c73-24,96-27,226-26c128,0,155,3,233,26
		c95,29,185,72,257,120c55,38,150,126,150,140c0,19-51,77-68,77c-9,0-51-28-92-61c-82-66-226-141-305-160c-69-16-209-16-275,0
		c-154,38-247,128-307,297l-28,79l-3,1183l-3,1182h511h510v60v60h-510h-510v620v620h-45C51030,10070,51017,10065,51006,10048z"/>
	<path class="st0" d="M44090,8994c-110-16-176-30-245-51c-322-101-550-334-635-648c-31-114-39-356-16-479c22-113,65-231,117-319
		c50-84,162-204,247-265c35-24,60-48,55-52c-4-3-38-27-75-53c-137-96-257-267-277-396c-10-63,1-170,23-221c39-94,119-163,259-224
		l77-33l-48-18c-298-112-513-320-567-547c-19-82-19-238,0-313c52-207,211-388,440-503c186-93,396-145,667-164
		c505-36,960,96,1252,363c250,228,344,584,221,835c-62,127-203,237-375,293c-190,61-348,79-995,111c-402,21-608,70-724,175
		c-68,62-86,105-86,210c0,82,3,97,33,156c39,80,140,193,222,247l59,40l68-25c140-50,219-64,404-70c140-4,198-2,279,12
		c245,40,430,133,581,292c120,126,197,272,235,448c20,97,24,332,5,420c-31,148-94,294-175,400l-45,60l27,2c15,1,144,7,287,13l260,10
		l23,26c15,17,22,36,20,53l-3,26l-390,5l-390,5l-61,37c-159,97-377,149-609,147C44169,8998,44104,8996,44090,8994z M44488,8850
		c345-70,577-297,646-632c20-99,21-309,1-403c-75-351-305-571-672-641c-117-22-340-22-448,1c-283,59-478,201-590,430
		c-121,247-123,565-6,810c79,166,191,279,356,360C43976,8874,44238,8902,44488,8850z M43882,6205c58-8,240-21,404-30
		c604-31,761-54,939-140c70-33,104-57,151-107c84-88,107-148,108-288c1-180-55-310-199-456c-157-160-363-262-655-326
		c-93-20-133-22-355-23c-222,0-263,3-363,23c-417,84-687,279-758,546c-19,70-18,220,2,287c47,159,161,295,341,408
		c62,39,241,121,264,121C43769,6220,43824,6213,43882,6205z"/>
	<path class="st0" d="M55105,8985c-274-44-521-174-765-402l-75-70l28-37c47-60,79-51,192,53c158,146,356,259,540,307
		c89,24,120,27,275,28c197,1,262-11,385-70c205-98,332-282,401-579c12-53,17-144,21-377l5-308h-30c-195,0-674-47-877-86
		c-449-86-740-215-920-406c-134-143-182-278-172-492c6-142,23-212,77-321c69-141,167-238,315-311c146-72,220-87,425-88
		c431-1,727,128,1093,474l97,92v-34c0-18,7-123,15-233s15-203,15-207c0-24,43-48,85-48h45v1008c0,1038-5,1211-40,1383
		c-79,386-292,625-632,710C55497,8998,55235,9006,55105,8985z M56110,6961v-450l-122-115c-68-64-158-142-201-174
		c-230-171-483-262-768-278c-374-21-649,158-730,474c-24,95-26,255-3,333c72,245,309,417,728,529c242,65,691,122,1004,128l92,2V6961
		z"/>
	<path class="st0" d="M65740,8994c-110-16-176-30-245-51c-322-101-550-334-635-648c-31-114-39-356-16-479c22-113,65-231,117-319
		c50-84,162-204,247-265c35-24,60-48,55-52c-4-3-38-27-75-53c-137-96-257-267-277-396c-10-63,1-170,23-221c39-94,119-163,259-224
		l77-33l-48-18c-298-112-513-320-567-547c-19-82-19-238,0-313c52-207,211-388,440-503c186-93,396-145,667-164
		c505-36,960,96,1252,363c250,228,344,584,221,835c-62,127-203,237-375,293c-190,61-348,79-995,111c-402,21-608,70-724,175
		c-68,62-86,105-86,210c0,82,3,97,33,156c39,80,140,193,222,247l59,40l68-25c140-50,219-64,404-70c140-4,198-2,279,12
		c245,40,430,133,581,292c120,126,197,272,235,448c20,97,24,332,5,420c-31,148-94,294-175,400l-45,60l27,2c15,1,144,7,287,13l260,10
		l23,26c15,17,22,36,20,53l-3,26l-390,5l-390,5l-61,37c-159,97-377,149-609,147C65819,8998,65754,8996,65740,8994z M66138,8850
		c345-70,577-297,646-632c20-99,21-309,1-403c-75-351-305-571-672-641c-117-22-340-22-448,1c-283,59-478,201-590,430
		c-121,247-123,565-6,810c79,166,191,279,356,360C65626,8874,65888,8902,66138,8850z M65532,6205c58-8,240-21,404-30
		c604-31,761-54,939-140c70-33,104-57,151-107c84-88,107-148,108-288c1-180-55-310-199-456c-157-160-363-262-655-326
		c-93-20-133-22-355-23c-222,0-263,3-363,23c-417,84-687,279-758,546c-19,70-18,220,2,287c47,159,161,295,341,408
		c62,39,241,121,264,121C65419,6220,65474,6213,65532,6205z"/>
	<path class="st0" d="M70557,8984c-357-64-611-309-777-748l-38-99l-6,164c-3,90-8,263-12,384c-7,263-8,265-89,265h-55V7410V5870h85
		h85v1019v1020l36,103c46,132,150,350,208,436c139,209,312,330,538,377c105,22,316,20,409-5c86-23,123-25,137-7c12,14,32,108,26,119
		c-9,15-114,47-188,57C70812,9004,70653,9001,70557,8984z"/>
	<path class="st0" d="M74050,8994c-377-48-669-209-876-483c-194-258-296-594-311-1021c-15-439,75-820,261-1105
		c64-99,192-236,285-305c422-316,1140-332,1586-35c326,217,515,564,586,1075c16,112,16,460,0,580c-92,717-460,1159-1061,1276
		C74437,8991,74128,9003,74050,8994z M74500,8845c439-89,744-397,865-875c39-156,55-278,62-476c23-695-202-1190-643-1412
		c-239-121-603-152-902-77c-293,74-543,279-684,560c-74,146-127,332-153,528c-20,155-20,478,0,634c84,656,434,1056,990,1132
		C74130,8872,74408,8864,74500,8845z"/>
	<path class="st0" d="M83998,8985c-172-28-338-97-503-208c-101-69-296-258-365-354c-24-34-45-61-47-59s-8,126-14,277
		c-12,316-10,309-96,309h-53V6850V4749l83,3l82,3l3,788l2,789l41-54c181-234,398-366,695-424c121-24,384-24,509,0
		c513,97,879,460,1019,1012c53,210,60,278,61,584c0,309-12,425-62,630c-124,509-423,812-888,900C84368,8999,84098,9002,83998,8985z
		 M84340,8860c403-53,677-282,811-681c70-208,99-427,99-734c0-282-24-451-91-660c-106-333-307-579-581-713c-344-168-853-142-1144,59
		c-103,70-223,194-300,309l-44,65v852v852l74,98c138,184,346,364,521,451C83873,8851,84114,8889,84340,8860z"/>
	<path class="st0" d="M40480,7410V5870h80h80v1540v1540h-80h-80V7410z"/>
	<path class="st0" d="M47970,7410V5870h80h80v1540v1540h-80h-80V7410z"/>
	<path class="st0" d="M77980,7878c0-903,2-1089,15-1173c85-561,400-857,940-882c318-15,597,74,865,275c96,72,241,213,305,296
		c28,36,53,65,56,65c3,1,10-119,14-266c4-153,11-277,17-288c16-29,28-35,81-35h47v1540v1540h-80h-80V7782V6614l-67-84
		c-197-250-466-447-713-525c-334-104-708-52-929,129c-144,119-236,293-287,546c-16,76-18,195-21,1178l-4,1092h-79h-80V7878z"/>
</g>
</svg>
